<svg id="eh9OWTaxeyV1" xmlns="http://www.w3.org/2000/svg" xmlns:xlink="http://www.w3.org/1999/xlink" viewBox="0 0 32 32" shape-rendering="geometricPrecision" text-rendering="geometricPrecision" project-id="d21b2c0e210140ba868d61b55f752aed" export-id="84da52dd8c84464bba1f850b92f5e073" cached="false"><rect width="27" height="26.69" rx="0" ry="0" transform="translate(2.703011 2.655)" stroke-width="0"/><rect width="22.330977" height="22.38898" rx="0" ry="0" transform="translate(5.037522 4.805511)" fill="#fff" stroke-width="0"/><rect width="1.847381" height="1.896683" rx="0" ry="0" transform="translate(6.942161 23.299127)" fill="#05f" stroke-width="0"/><rect width="1.847381" height="1.896683" rx="0" ry="0" transform="translate(7.865852 20.773026)" fill="#05f" stroke-width="0"/><rect width="1.847381" height="1.896683" rx="0" ry="0" transform="translate(10 18.11902)" fill="#05f" stroke-width="0"/><rect width="1.847381" height="1.896683" rx="0" ry="0" transform="translate(10.1 23.299127)" fill="#05f" stroke-width="0"/><rect width="1.847381" height="1.896683" rx="0" ry="0" transform="translate(13.079743 20.773026)" fill="#05f" stroke-width="0"/><rect width="1.847381" height="1.896683" rx="0" ry="0" transform="translate(6.942162 18.11902)" fill="#05f" stroke-width="0"/><rect width="1.847381" height="1.896683" rx="0" ry="0" transform="translate(22.295157 6.629552)" fill="#f00" stroke-width="0"/><rect width="1.847381" height="1.896683" rx="0" ry="0" transform="translate(19.042169 6.629552)" fill="#f00" stroke-width="0"/><rect width="1.847381" height="1.896683" rx="0" ry="0" transform="translate(16.203009 6.629552)" fill="#f00" stroke-width="0"/><rect width="1.847381" height="1.896683" rx="0" ry="0" transform="translate(20.447776 9.474578)" fill="#f00" stroke-width="0"/><rect width="1.847381" height="1.896683" rx="0" ry="0" transform="translate(18.2 12.374292)" fill="#f00" stroke-width="0"/><rect width="1.847381" height="1.896683" rx="0" ry="0" transform="translate(21.371466 13.322634)" fill="#f00" stroke-width="0"/><rect width="1.847381" height="1.896683" rx="0" ry="0" transform="translate(17.194788 9.474578)" fill="#f00" stroke-width="0"/><rect width="1.847381" height="1.896683" rx="0" ry="0" transform="translate(10.6 20.773026)" fill="#05f" stroke-width="0"/></svg>
